<?xml version="1.0" encoding="UTF-8" standalone="no"?>
<!DOCTYPE svg PUBLIC "-//W3C//DTD SVG 1.1//EN" "http://www.w3.org/Graphics/SVG/1.1/DTD/svg11.dtd">
<svg version="1.1" xmlns="http://www.w3.org/2000/svg" xmlns:xlink="http://www.w3.org/1999/xlink" preserveAspectRatio="xMidYMid meet" viewBox="0 0 640 640" width="640" height="640"><defs><path d="M520.42 112.36C531.47 112.36 540.42 121.32 540.42 132.36C540.42 195.37 540.42 364.4 540.42 427.4C540.42 438.45 531.47 447.4 520.42 447.4C442.65 447.4 229.32 447.4 151.54 447.4C140.49 447.4 131.54 438.45 131.54 427.4C131.54 364.4 131.54 195.37 131.54 132.36C131.54 121.32 140.49 112.36 151.54 112.36C229.32 112.36 442.65 112.36 520.42 112.36Z" id="a2G1YtpBC"></path><path d="M524.99 234.15C524.99 272.77 476.1 304.13 415.88 304.13C355.66 304.13 306.77 272.77 306.77 234.15C306.77 195.52 355.66 164.16 415.88 164.16C476.1 164.16 524.99 195.52 524.99 234.15Z" id="d1pmeQlIxN"></path><path d="M297.96 356.48C297.96 396.32 268.33 428.67 231.83 428.67C195.34 428.67 165.71 396.32 165.71 356.48C165.71 316.64 195.34 284.29 231.83 284.29C268.33 284.29 297.96 316.64 297.96 356.48Z" id="avW052FAB"></path></defs><g><g><g><use xlink:href="#a2G1YtpBC" opacity="1" fill="#9186a4" fill-opacity="1"></use></g><g><use xlink:href="#d1pmeQlIxN" opacity="1" fill="#bd3185" fill-opacity="1"></use></g><g><use xlink:href="#avW052FAB" opacity="1" fill="#9d0e43" fill-opacity="1"></use></g></g></g></svg>